<svg width="72" height="72" viewBox="0 0 72 72" fill="none" xmlns="http://www.w3.org/2000/svg">
    <path d="M1 36C1 16.67 16.67 1 36 1V36H1Z" fill="#B8CEDC" stroke="black" stroke-width="2" />
    <path d="M36 36H71C71 55.33 55.33 71 36 71V36Z" fill="#F9A474" stroke="black" stroke-width="2" />
    <rect x="36" y="1" width="35" height="35" fill="#FEDF6F" stroke="black" stroke-width="2" />
    <rect x="1" y="36" width="35" height="35" fill="#C3B2E7" stroke="black" stroke-width="2" />
    <path d="M53.5 1C63.165 1 71 8.83502 71 18.5C71 28.165 63.165 36 53.5 36H36V1L53.5 1Z" fill="#C9DA8F" stroke="black"
        stroke-width="2" />
    <path d="M1 71C1 51.67 16.67 36 36 36C36 55.33 20.33 71 1 71Z" fill="#F682A5" stroke="black" stroke-width="2" />
</svg>