<?xml version="1.0" encoding="utf-8"?>
<!-- Generator: Adobe Illustrator 26.3.1, SVG Export Plug-In . SVG Version: 6.00 Build 0)  -->
<svg version="1.1" id="Layer_1" xmlns="http://www.w3.org/2000/svg" xmlns:xlink="http://www.w3.org/1999/xlink" x="0px" y="0px"
	 width="20px" height="20px" viewBox="0 0 20 20" style="enable-background:new 0 0 20 20;" xml:space="preserve">
<style type="text/css">
	.st0{fill:#8B173A;}
</style>
<path class="st0" d="M18.9,12.3c-0.1-0.1-0.2-0.2-0.3-0.2c-0.1,0-0.3,0-0.4,0c-1.4,0.4-3,0.5-4.4,0.1s-2.8-1.1-3.8-2.2
	C8.9,9,8.1,7.7,7.7,6.3c-0.4-1.4-0.3-3,0.1-4.4c0-0.1,0-0.3,0-0.4c0-0.1-0.1-0.3-0.2-0.3C7.6,1,7.4,0.9,7.3,0.9c-0.1,0-0.3,0-0.4,0
	c-2,0.6-3.7,1.8-5,3.5C0.9,5.8,0.2,7.6,0,9.4c-0.2,1.8,0.2,3.6,1,5.2c0.8,1.6,2.1,3,3.6,3.9c1.5,1,3.3,1.5,5.1,1.5
	c2.1,0,4.2-0.7,5.9-2c1.6-1.2,2.9-3,3.5-5c0-0.1,0-0.3,0-0.4C19.1,12.6,19,12.4,18.9,12.3z"/>
</svg>
