<?xml version="1.0" encoding="utf-8"?>
<!-- Generator: Adobe Illustrator 26.3.1, SVG Export Plug-In . SVG Version: 6.00 Build 0)  -->
<svg version="1.1" id="Layer_1" xmlns="http://www.w3.org/2000/svg" xmlns:xlink="http://www.w3.org/1999/xlink" x="0px" y="0px"
	 width="20px" height="20px" viewBox="0 0 20 20" style="enable-background:new 0 0 20 20;" xml:space="preserve">
<style type="text/css">
	.st0{fill-rule:evenodd;clip-rule:evenodd;fill:#231F20;}
</style>
<path class="st0" d="M15.3,16.6c-1.6,1.2-3.6,1.8-5.7,1.7s-3.9-1-5.4-2.5s-2.3-3.4-2.5-5.4c-0.1-2,0.5-4,1.7-5.7
	c0.8-1.1,1.8-1.9,3-2.5c-0.1,0.5-0.1,1-0.1,1.4c0,2.6,1.1,5.2,2.9,7.1s4.4,2.9,7.1,2.9c0.5,0,1,0,1.4-0.1
	C17.2,14.7,16.3,15.8,15.3,16.6z M19.6,11.9c-0.1-0.1-0.2-0.2-0.4-0.2c-0.1,0-0.3,0-0.4,0c-1.5,0.4-3,0.5-4.5,0.1
	c-1.5-0.4-2.8-1.1-3.9-2.2S8.5,7.2,8.2,5.7c-0.4-1.5-0.3-3,0.1-4.5c0-0.1,0-0.3,0-0.4c0-0.1-0.1-0.3-0.2-0.4C8,0.3,7.8,0.3,7.7,0.2
	c-0.1,0-0.3,0-0.4,0c-2,0.6-3.8,1.9-5.1,3.6C1.1,5.3,0.4,7,0.3,8.9s0.2,3.7,1,5.4s2.1,3.1,3.7,4s3.4,1.5,5.3,1.5c2.2,0,4.3-0.7,6-2
	c1.7-1.3,2.9-3.1,3.6-5.1c0-0.1,0-0.3,0-0.4C19.7,12.2,19.7,12,19.6,11.9z"/>
</svg>
