<?xml version="1.0" encoding="utf-8"?>
<!-- Generator: Adobe Illustrator 26.3.1, SVG Export Plug-In . SVG Version: 6.00 Build 0)  -->
<svg version="1.1" id="Layer_1" xmlns="http://www.w3.org/2000/svg" xmlns:xlink="http://www.w3.org/1999/xlink" x="0px" y="0px"
	 width="25px" height="25px" viewBox="0 0 25 25" style="enable-background:new 0 0 25 25;" xml:space="preserve">
<style type="text/css">
	.st0{fill:#FCFCFC;}
</style>
<g>
	<path class="st0" d="M4.2,6.2c0.1,0.1,0.3,0.3,0.5,0.3c0.1,0,0.2,0.1,0.3,0.1c0.1,0,0.2,0.1,0.3,0.1c0.2,0,0.4-0.1,0.5-0.2l0.7-0.7
		V5.1c0-0.4-0.2-0.7-0.4-0.8l-1-1c-0.5-0.5-1.4-0.5-1.9,0C3,3.6,2.8,4.1,2.8,4.4c0,0.3,0.2,0.6,0.5,1L4.2,6.2z"/>
	<path class="st0" d="M24.4,11.5c-0.2-0.2-0.6-0.4-1-0.4h-1c-0.3,0-0.7,0-1,0.4c-0.2,0.2-0.3,0.6-0.3,0.9c0,0.3,0.2,0.7,0.4,1
		c0.2,0.2,0.6,0.4,1,0.4h1c0.3,0,0.7-0.2,1-0.4c0.2-0.2,0.4-0.6,0.4-1C24.8,12.2,24.7,11.8,24.4,11.5z"/>
	<path class="st0" d="M19.8,6.6c0.3,0,0.7-0.2,1-0.4l0.8-1C21.9,5,22,4.6,22,4.3s-0.2-0.7-0.4-1c-0.5-0.5-1.5-0.5-1.9,0l-1,1
		c-0.2,0.2-0.4,0.6-0.4,1s0.2,0.7,0.4,1C19.1,6.6,19.6,6.6,19.8,6.6z"/>
	<path class="st0" d="M11.6,3.6c0.4,0.2,0.6,0.3,0.8,0.3c0.2,0,0.7-0.2,1-0.4c0.3-0.3,0.5-0.7,0.5-1.1V1.6c0-0.3-0.2-0.7-0.4-1
		c-0.2-0.2-0.6-0.4-1-0.4c-0.3,0-0.7,0-1.1,0.4c-0.2,0.2-0.4,0.6-0.4,1v1c0,0.3,0.2,0.7,0.4,1L11.6,3.6z"/>
	<path class="st0" d="M3.8,12.5c0-0.3-0.2-0.7-0.4-1c-0.2-0.2-0.6-0.4-1-0.4h-1c-0.2,0-0.6,0-1,0.4c-0.2,0.2-0.4,0.6-0.4,1
		c0,0.3,0.2,0.7,0.4,1c0.2,0.2,0.6,0.4,1,0.4h1c0.3,0,0.7-0.1,0.9-0.3C3.8,13.2,3.8,12.8,3.8,12.5z"/>
	<path class="st0" d="M20.8,18.8c-0.1-0.1-0.3-0.3-0.5-0.4c-0.2-0.2-0.5-0.2-0.6-0.2c-0.2,0-0.3,0.1-0.4,0.1h-0.5v0.3
		c-0.2,0.1-0.4,0.3-0.4,0.5c-0.2,0.2-0.2,0.5-0.2,0.6c0,0.2,0.1,0.3,0.1,0.4v0.5h0.3c0,0,0.1,0.1,0.1,0.1l1,1c0.2,0.2,0.6,0.4,1,0.4
		c0.4,0,0.7-0.2,1-0.3l0.1-0.1c0.2-0.2,0.4-0.6,0.4-1s-0.2-0.7-0.4-1L20.8,18.8z"/>
	<path class="st0" d="M19.8,9.4c-0.7-1.5-1.6-2.6-2.8-3.5c-1.3-0.9-2.7-1.3-4.3-1.3c-2.1,0-4.1,0.8-5.5,2.3
		c-1.5,1.7-2.4,3.6-2.6,5.5l0,0c0,1.4,0.4,2.8,1.3,4.3c0.7,1.2,2.1,2.3,3.6,2.9c0.9,0.4,1.9,0.6,2.8,0.6c0.6,0,1.1-0.1,1.7-0.2
		c1.4-0.2,2.7-0.9,4-2.1c1.1-1.1,1.8-2.5,2.1-4C20.5,12.4,20.3,10.8,19.8,9.4z M17.1,14.3c-0.3,0.9-1,1.6-1.9,2.2
		c-0.7,0.6-1.7,1-2.7,1c-1.3,0-2.5-0.5-3.5-1.4c-0.9-1-1.3-2.2-1.3-3.5c0-1,0.3-2,0.9-2.7C9,9,9.8,8.3,10.7,7.9
		c0.7-0.3,1.4-0.4,2.2-0.4c0.2,0,0.5,0,0.7,0c1,0.2,1.9,0.7,2.5,1.3c0.8,0.8,1.2,1.6,1.3,2.5C17.6,12.4,17.5,13.4,17.1,14.3z"/>
	<path class="st0" d="M6.1,18.8c-0.5-0.4-1.4-0.4-1.9,0.1l-0.8,0.8C3.2,19.6,3.1,19.8,3,20c-0.2,0.2-0.2,0.5-0.2,0.6
		c0,0.2,0.1,0.3,0.1,0.4v0.5h0.3c0.1,0.2,0.3,0.4,0.5,0.4c0.2,0.2,0.5,0.2,0.6,0.2h0.9v-0.3c0,0,0.1-0.1,0.1-0.1l1-1
		c0.2-0.2,0.4-0.6,0.4-1C6.6,19.3,6.4,19,6.1,18.8z"/>
	<path class="st0" d="M12.4,21.1c-0.2,0-0.5,0.1-0.8,0.3l-0.1,0.1c-0.2,0.2-0.4,0.6-0.4,1v1c0,0.3,0.2,0.7,0.4,1
		c0.2,0.2,0.6,0.4,1,0.4s0.7-0.2,1-0.4c0.2-0.2,0.4-0.6,0.4-1v-1c0-0.3-0.2-0.7-0.4-1S12.8,21.1,12.4,21.1z"/>
</g>
</svg>
