<?xml version="1.0" encoding="utf-8"?>
<!-- Generator: Adobe Illustrator 26.3.1, SVG Export Plug-In . SVG Version: 6.00 Build 0)  -->
<svg version="1.1" id="Layer_1" xmlns="http://www.w3.org/2000/svg" xmlns:xlink="http://www.w3.org/1999/xlink" x="0px" y="0px"
	 width="20px" height="20px" viewBox="0 0 20 20" style="enable-background:new 0 0 20 20;" xml:space="preserve">
<style type="text/css">
	.st0{fill:#8B173A;}
</style>
<path class="st0" d="M9,1.5V0.8c0-0.2,0.1-0.4,0.2-0.5C9.4,0.1,9.6,0,9.8,0s0.4,0.1,0.5,0.2c0.1,0.1,0.2,0.3,0.2,0.5v0.8
	c0,0.2-0.1,0.4-0.2,0.5c-0.1,0.1-0.3,0.2-0.5,0.2S9.4,2.2,9.2,2C9.1,1.9,9,1.7,9,1.5z M15.8,9.8c0,1.2-0.4,2.3-1,3.3
	s-1.6,1.8-2.7,2.2c-1.1,0.5-2.3,0.6-3.5,0.3c-1.2-0.2-2.2-0.8-3.1-1.6c-0.8-0.8-1.4-1.9-1.6-3.1C3.6,9.8,3.8,8.6,4.2,7.5
	c0.5-1.1,1.2-2,2.2-2.7c1-0.7,2.1-1,3.3-1c1.6,0,3.1,0.6,4.2,1.8C15.1,6.6,15.7,8.2,15.8,9.8z M3.2,4.3c0.1,0.1,0.3,0.2,0.5,0.2
	s0.4-0.1,0.5-0.2c0.1-0.1,0.2-0.3,0.2-0.5S4.4,3.4,4.3,3.2L3.5,2.5C3.4,2.3,3.2,2.2,3,2.2S2.6,2.3,2.5,2.5C2.3,2.6,2.2,2.8,2.2,3
	s0.1,0.4,0.2,0.5L3.2,4.3z M3.2,15.2L2.5,16c-0.1,0.1-0.2,0.3-0.2,0.5s0.1,0.4,0.2,0.5c0.1,0.1,0.3,0.2,0.5,0.2s0.4-0.1,0.5-0.2
	l0.8-0.8c0.1-0.1,0.1-0.2,0.2-0.2c0-0.1,0.1-0.2,0.1-0.3s0-0.2-0.1-0.3c0-0.1-0.1-0.2-0.2-0.2c-0.1-0.1-0.2-0.1-0.2-0.2
	C3.9,15,3.8,15,3.8,15s-0.2,0-0.3,0.1C3.4,15.1,3.3,15.1,3.2,15.2z M15.8,4.5c0.1,0,0.2,0,0.3-0.1c0.1,0,0.2-0.1,0.2-0.2L17,3.5
	c0.1-0.1,0.2-0.3,0.2-0.5S17.2,2.6,17,2.5c-0.1-0.1-0.3-0.2-0.5-0.2S16.1,2.3,16,2.5l-0.8,0.8C15.1,3.3,15,3.5,15,3.6
	c0,0.1,0,0.3,0,0.4c0.1,0.1,0.2,0.3,0.3,0.3C15.5,4.5,15.6,4.5,15.8,4.5z M16.3,15.2c-0.1-0.1-0.3-0.2-0.5-0.2s-0.4,0.1-0.5,0.2
	c-0.1,0.1-0.2,0.3-0.2,0.5s0.1,0.4,0.2,0.5L16,17c0.1,0.1,0.2,0.1,0.2,0.2c0.1,0,0.2,0.1,0.3,0.1s0.2,0,0.3-0.1
	c0.1,0,0.2-0.1,0.2-0.2s0.1-0.2,0.2-0.2c0-0.1,0.1-0.2,0.1-0.3s0-0.2-0.1-0.3c0-0.1-0.1-0.2-0.2-0.2L16.3,15.2z M1.5,9H0.8
	C0.6,9,0.4,9.1,0.2,9.2C0.1,9.4,0,9.6,0,9.8s0.1,0.4,0.2,0.5c0.1,0.1,0.3,0.2,0.5,0.2h0.8c0.2,0,0.4-0.1,0.5-0.2
	c0.1-0.1,0.2-0.3,0.2-0.5S2.2,9.4,2,9.2C1.9,9.1,1.7,9,1.5,9z M9.8,17.2c-0.2,0-0.4,0.1-0.5,0.2C9.1,17.6,9,17.8,9,18v0.8
	c0,0.2,0.1,0.4,0.2,0.5c0.1,0.1,0.3,0.2,0.5,0.2s0.4-0.1,0.5-0.2c0.1-0.1,0.2-0.3,0.2-0.5V18c0-0.2-0.1-0.4-0.2-0.5
	C10.1,17.3,9.9,17.2,9.8,17.2z M18.8,9H18c-0.2,0-0.4,0.1-0.5,0.2c-0.1,0.1-0.2,0.3-0.2,0.5s0.1,0.4,0.2,0.5
	c0.1,0.1,0.3,0.2,0.5,0.2h0.8c0.2,0,0.4-0.1,0.5-0.2c0.1-0.1,0.2-0.3,0.2-0.5s-0.1-0.4-0.2-0.5C19.1,9.1,18.9,9,18.8,9z"/>
</svg>
